{
  "accessors": [
    {
      "bufferView": 2,
      "componentType": 5126,
      "count": 3863,
      "max": [
        16.465499877929688,
        191.76589965820313,
        20.596399307250977
      ],
      "min": [
        -25.49139976501465,
        72.08869934082031,
        -16.146299362182617
      ],
      "type": "VEC3"
    },
    {
      "bufferView": 2,
      "byteOffset": 46356,
      "componentType": 5126,
      "count": 3863,
      "max": [
        0.9991012215614319,
        0.995652437210083,
        0.9998130798339844
      ],
      "min": [
        -0.9987083673477173,
        -0.9996147751808167,
        -0.9997923374176025
      ],
      "type": "VEC3"
    },
    {
      "bufferView": 3,
      "componentType": 5126,
      "count": 3863,
      "max": [
        0.9995526075363159,
        0.9824996590614319,
        0.9996643662452698,
        1.0
      ],
      "min": [
        -0.9998596906661987,
        -0.9998786449432373,
        -0.999847412109375,
        -1.0
      ],
      "type": "VEC4"
    },
    {
      "bufferView": 1,
      "componentType": 5126,
      "count": 3863,
      "max": [
        0.9946954250335693,
        0.9837592840194702
      ],
      "min": [
        0.00196114182472229,
        0.002433180809020996
      ],
      "type": "VEC2"
    },
    {
      "bufferView": 0,
      "componentType": 5125,
      "count": 20178,
      "type": "SCALAR"
    },
    {
      "bufferView": 2,
      "byteOffset": 92712,
      "componentType": 5126,
      "count": 3515,
      "max": [
        19.37030029296875,
        175.68980407714844,
        19.68280029296875
      ],
      "min": [
        -23.46470069885254,
        111.61109924316406,
        -21.384899139404297
      ],
      "type": "VEC3"
    },
    {
      "bufferView": 2,
      "byteOffset": 134892,
      "componentType": 5126,
      "count": 3515,
      "max": [
        0.997887909412384,
        0.999515950679779,
        0.9998674988746643
      ],
      "min": [
        -0.9992376565933228,
        -0.9996840953826904,
        -0.9987565875053406
      ],
      "type": "VEC3"
    },
    {
      "bufferView": 3,
      "byteOffset": 61808,
      "componentType": 5126,
      "count": 3515,
      "max": [
        0.9989145994186401,
        0.9996676445007324,
        0.9997940063476563,
        1.0
      ],
      "min": [
        -0.999980628490448,
        -0.9907956123352051,
        -0.9987084269523621,
        1.0
      ],
      "type": "VEC4"
    },
    {
      "bufferView": 1,
      "byteOffset": 30904,
      "componentType": 5126,
      "count": 3515,
      "max": [
        1.9924497604370117,
        0.9291742444038391
      ],
      "min": [
        1.0014429092407227,
        0.008245289325714111
      ],
      "type": "VEC2"
    },
    {
      "bufferView": 0,
      "byteOffset": 80712,
      "componentType": 5125,
      "count": 19134,
      "type": "SCALAR"
    },
    {
      "bufferView": 2,
      "byteOffset": 177072,
      "componentType": 5126,
      "count": 3378,
      "max": [
        14.449999809265137,
        78.181396484375,
        18.441099166870117
      ],
      "min": [
        -29.536800384521484,
        0.03189999982714653,
        -11.458600044250488
      ],
      "type": "VEC3"
    },
    {
      "bufferView": 2,
      "byteOffset": 217608,
      "componentType": 5126,
      "count": 3378,
      "max": [
        0.999958872795105,
        0.9385232925415039,
        0.9993661642074585
      ],
      "min": [
        -0.9997564554214478,
        -0.9999384880065918,
        -0.9999929666519165
      ],
      "type": "VEC3"
    },
    {
      "bufferView": 3,
      "byteOffset": 118048,
      "componentType": 5126,
      "count": 3378,
      "max": [
        0.9988272190093994,
        0.999813437461853,
        0.9995477795600891,
        1.0
      ],
      "min": [
        -0.9987475275993347,
        -0.9992499351501465,
        -0.9984114170074463,
        1.0
      ],
      "type": "VEC4"
    },
    {
      "bufferView": 1,
      "byteOffset": 59024,
      "componentType": 5126,
      "count": 3378,
      "max": [
        2.984292507171631,
        0.9883415102958679
      ],
      "min": [
        2.0134479999542236,
        0.009113490581512451
      ],
      "type": "VEC2"
    },
    {
      "bufferView": 0,
      "byteOffset": 157248,
      "componentType": 5125,
      "count": 18534,
      "type": "SCALAR"
    }
  ],
  "asset": {
    "extras": {
      "author": "assetfactory (https://sketchfab.com/assetfactory)",
      "license": "SKETCHFAB Standard (https://sketchfab.com/licenses)",
      "source": "https://sketchfab.com/3d-models/greek-underwater-broken-statue-3-a48e8b1fc7bf4858a1cb6054eada7e7b",
      "title": "Greek underwater broken statue 3"
    },
    "generator": "Sketchfab-16.33.0",
    "version": "2.0"
  },
  "bufferViews": [
    {
      "buffer": 0,
      "byteLength": 231384,
      "name": "floatBufferViews",
      "target": 34963
    },
    {
      "buffer": 0,
      "byteLength": 86048,
      "byteOffset": 231384,
      "byteStride": 8,
      "name": "floatBufferViews",
      "target": 34962
    },
    {
      "buffer": 0,
      "byteLength": 258144,
      "byteOffset": 317432,
      "byteStride": 12,
      "name": "floatBufferViews",
      "target": 34962
    },
    {
      "buffer": 0,
      "byteLength": 172096,
      "byteOffset": 575576,
      "byteStride": 16,
      "name": "floatBufferViews",
      "target": 34962
    }
  ],
  "buffers": [
    {
      "byteLength": 747672,
      "uri": "scene.bin"
    }
  ],
  "images": [
    {
      "uri": "textures/part_02_baseColor.jpeg"
    },
    {
      "uri": "textures/part_02_metallicRoughness.png"
    },
    {
      "uri": "textures/part_02_normal.png"
    },
    {
      "uri": "textures/part01_baseColor.jpeg"
    },
    {
      "uri": "textures/part01_metallicRoughness.png"
    },
    {
      "uri": "textures/part01_normal.png"
    },
    {
      "uri": "textures/part_03_baseColor.jpeg"
    },
    {
      "uri": "textures/part_03_metallicRoughness.png"
    },
    {
      "uri": "textures/part_03_normal.png"
    }
  ],
  "materials": [
    {
      "doubleSided": true,
      "name": "part_02",
      "normalTexture": {
        "index": 2
      },
      "occlusionTexture": {
        "index": 1
      },
      "pbrMetallicRoughness": {
        "baseColorTexture": {
          "index": 0
        },
        "metallicRoughnessTexture": {
          "index": 1
        }
      }
    },
    {
      "doubleSided": true,
      "name": "part01",
      "normalTexture": {
        "index": 5
      },
      "occlusionTexture": {
        "index": 4
      },
      "pbrMetallicRoughness": {
        "baseColorTexture": {
          "index": 3
        },
        "metallicRoughnessTexture": {
          "index": 4
        }
      }
    },
    {
      "doubleSided": true,
      "name": "part_03",
      "normalTexture": {
        "index": 8
      },
      "occlusionTexture": {
        "index": 7
      },
      "pbrMetallicRoughness": {
        "baseColorTexture": {
          "index": 6
        },
        "metallicRoughnessTexture": {
          "index": 7
        }
      }
    }
  ],
  "meshes": [
    {
      "name": "mesh_low_part_02_0",
      "primitives": [
        {
          "attributes": {
            "NORMAL": 1,
            "POSITION": 0,
            "TANGENT": 2,
            "TEXCOORD_0": 3
          },
          "indices": 4,
          "material": 0,
          "mode": 4
        }
      ]
    },
    {
      "name": "mesh_low_part01_0",
      "primitives": [
        {
          "attributes": {
            "NORMAL": 6,
            "POSITION": 5,
            "TANGENT": 7,
            "TEXCOORD_0": 8
          },
          "indices": 9,
          "material": 1,
          "mode": 4
        }
      ]
    },
    {
      "name": "mesh_low_part_03_0",
      "primitives": [
        {
          "attributes": {
            "NORMAL": 11,
            "POSITION": 10,
            "TANGENT": 12,
            "TEXCOORD_0": 13
          },
          "indices": 14,
          "material": 2,
          "mode": 4
        }
      ]
    }
  ],
  "nodes": [
    {
      "children": [
        1
      ],
      "matrix": [
        1.0,
        0.0,
        0.0,
        0.0,
        0.0,
        2.220446049250313e-16,
        -1.0,
        0.0,
        0.0,
        1.0,
        2.220446049250313e-16,
        0.0,
        0.0,
        0.0,
        0.0,
        1.0
      ],
      "name": "Sketchfab_model"
    },
    {
      "children": [
        2
      ],
      "matrix": [
        0.009999999776482582,
        0.0,
        0.0,
        0.0,
        0.0,
        0.0,
        0.009999999776482582,
        0.0,
        0.0,
        -0.009999999776482582,
        0.0,
        0.0,
        0.0,
        0.0,
        0.0,
        1.0
      ],
      "name": "alts_Broken statue 03.fbx"
    },
    {
      "children": [
        3
      ],
      "name": "RootNode"
    },
    {
      "children": [
        4,
        5,
        6
      ],
      "name": "mesh_low"
    },
    {
      "mesh": 0,
      "name": "mesh_low_part_02_0"
    },
    {
      "mesh": 1,
      "name": "mesh_low_part01_0"
    },
    {
      "mesh": 2,
      "name": "mesh_low_part_03_0"
    }
  ],
  "samplers": [
    {
      "magFilter": 9729,
      "minFilter": 9987,
      "wrapS": 10497,
      "wrapT": 10497
    }
  ],
  "scene": 0,
  "scenes": [
    {
      "name": "Sketchfab_Scene",
      "nodes": [
        0
      ]
    }
  ],
  "textures": [
    {
      "sampler": 0,
      "source": 0
    },
    {
      "sampler": 0,
      "source": 1
    },
    {
      "sampler": 0,
      "source": 2
    },
    {
      "sampler": 0,
      "source": 3
    },
    {
      "sampler": 0,
      "source": 4
    },
    {
      "sampler": 0,
      "source": 5
    },
    {
      "sampler": 0,
      "source": 6
    },
    {
      "sampler": 0,
      "source": 7
    },
    {
      "sampler": 0,
      "source": 8
    }
  ]
}
